<mxfile host="app.diagrams.net" agent="Mozilla/5.0 (Windows NT 10.0; Win64; x64) AppleWebKit/537.36 (KHTML, like Gecko) Chrome/131.0.0.0 Safari/537.36" version="24.8.6">
  <diagram name="Page-1" id="cFJJiePPnTbU2zktLED3">
    <mxGraphModel dx="1435" dy="1854" grid="0" gridSize="10" guides="1" tooltips="1" connect="1" arrows="1" fold="1" page="0" pageScale="1" pageWidth="850" pageHeight="1100" math="0" shadow="0">
      <root>
        <mxCell id="0" />
        <mxCell id="1" parent="0" />
        <mxCell id="bzXu8Wisl6GZOZBHfdT6-3" value="" style="edgeStyle=none;curved=1;rounded=0;orthogonalLoop=1;jettySize=auto;html=1;fontSize=12;startSize=8;endSize=8;" edge="1" parent="1" source="bzXu8Wisl6GZOZBHfdT6-1" target="bzXu8Wisl6GZOZBHfdT6-2">
          <mxGeometry relative="1" as="geometry" />
        </mxCell>
        <mxCell id="bzXu8Wisl6GZOZBHfdT6-1" value="Start" style="ellipse;whiteSpace=wrap;html=1;" vertex="1" parent="1">
          <mxGeometry x="56" y="-934" width="94" height="56" as="geometry" />
        </mxCell>
        <mxCell id="bzXu8Wisl6GZOZBHfdT6-5" value="" style="edgeStyle=none;curved=1;rounded=0;orthogonalLoop=1;jettySize=auto;html=1;fontSize=12;startSize=8;endSize=8;" edge="1" parent="1" source="bzXu8Wisl6GZOZBHfdT6-2" target="bzXu8Wisl6GZOZBHfdT6-4">
          <mxGeometry relative="1" as="geometry" />
        </mxCell>
        <mxCell id="bzXu8Wisl6GZOZBHfdT6-2" value="int: a=0,b=0" style="shape=hexagon;perimeter=hexagonPerimeter2;whiteSpace=wrap;html=1;fixedSize=1;" vertex="1" parent="1">
          <mxGeometry x="43" y="-847" width="120" height="80" as="geometry" />
        </mxCell>
        <mxCell id="bzXu8Wisl6GZOZBHfdT6-7" value="" style="edgeStyle=none;curved=1;rounded=0;orthogonalLoop=1;jettySize=auto;html=1;fontSize=12;startSize=8;endSize=8;" edge="1" parent="1" source="bzXu8Wisl6GZOZBHfdT6-4" target="bzXu8Wisl6GZOZBHfdT6-6">
          <mxGeometry relative="1" as="geometry" />
        </mxCell>
        <mxCell id="bzXu8Wisl6GZOZBHfdT6-16" value="Y" style="edgeLabel;html=1;align=center;verticalAlign=middle;resizable=0;points=[];fontSize=12;" vertex="1" connectable="0" parent="bzXu8Wisl6GZOZBHfdT6-7">
          <mxGeometry x="-0.1995" relative="1" as="geometry">
            <mxPoint as="offset" />
          </mxGeometry>
        </mxCell>
        <mxCell id="bzXu8Wisl6GZOZBHfdT6-18" value="" style="edgeStyle=none;curved=1;rounded=0;orthogonalLoop=1;jettySize=auto;html=1;fontSize=12;startSize=8;endSize=8;" edge="1" parent="1" source="bzXu8Wisl6GZOZBHfdT6-4" target="bzXu8Wisl6GZOZBHfdT6-17">
          <mxGeometry relative="1" as="geometry" />
        </mxCell>
        <mxCell id="bzXu8Wisl6GZOZBHfdT6-19" value="N" style="edgeLabel;html=1;align=center;verticalAlign=middle;resizable=0;points=[];fontSize=12;" vertex="1" connectable="0" parent="bzXu8Wisl6GZOZBHfdT6-18">
          <mxGeometry x="0.102" y="1" relative="1" as="geometry">
            <mxPoint as="offset" />
          </mxGeometry>
        </mxCell>
        <mxCell id="bzXu8Wisl6GZOZBHfdT6-4" value="a != 3" style="rhombus;whiteSpace=wrap;html=1;" vertex="1" parent="1">
          <mxGeometry x="63" y="-732" width="80" height="80" as="geometry" />
        </mxCell>
        <mxCell id="bzXu8Wisl6GZOZBHfdT6-9" value="" style="edgeStyle=none;curved=1;rounded=0;orthogonalLoop=1;jettySize=auto;html=1;fontSize=12;startSize=8;endSize=8;" edge="1" parent="1" source="bzXu8Wisl6GZOZBHfdT6-6" target="bzXu8Wisl6GZOZBHfdT6-8">
          <mxGeometry relative="1" as="geometry" />
        </mxCell>
        <mxCell id="bzXu8Wisl6GZOZBHfdT6-6" value="print(*)" style="rounded=0;whiteSpace=wrap;html=1;" vertex="1" parent="1">
          <mxGeometry x="45" y="-617" width="121" height="46" as="geometry" />
        </mxCell>
        <mxCell id="bzXu8Wisl6GZOZBHfdT6-11" value="" style="edgeStyle=none;curved=1;rounded=0;orthogonalLoop=1;jettySize=auto;html=1;fontSize=12;startSize=8;endSize=8;" edge="1" parent="1" source="bzXu8Wisl6GZOZBHfdT6-8" target="bzXu8Wisl6GZOZBHfdT6-10">
          <mxGeometry relative="1" as="geometry" />
        </mxCell>
        <mxCell id="bzXu8Wisl6GZOZBHfdT6-8" value="display *" style="shape=parallelogram;perimeter=parallelogramPerimeter;whiteSpace=wrap;html=1;fixedSize=1;" vertex="1" parent="1">
          <mxGeometry x="38.5" y="-530" width="134" height="40" as="geometry" />
        </mxCell>
        <mxCell id="bzXu8Wisl6GZOZBHfdT6-10" value="a ++&lt;div&gt;b ++&lt;/div&gt;" style="rounded=0;whiteSpace=wrap;html=1;" vertex="1" parent="1">
          <mxGeometry x="47.25" y="-451" width="116.5" height="46" as="geometry" />
        </mxCell>
        <mxCell id="bzXu8Wisl6GZOZBHfdT6-15" value="" style="endArrow=classic;html=1;rounded=0;fontSize=12;startSize=8;endSize=8;curved=1;" edge="1" parent="1">
          <mxGeometry width="50" height="50" relative="1" as="geometry">
            <mxPoint x="44" y="-428" as="sourcePoint" />
            <mxPoint x="56" y="-692" as="targetPoint" />
            <Array as="points">
              <mxPoint x="-42" y="-492" />
              <mxPoint x="-22" y="-618" />
            </Array>
          </mxGeometry>
        </mxCell>
        <mxCell id="bzXu8Wisl6GZOZBHfdT6-17" value="Stop" style="ellipse;whiteSpace=wrap;html=1;" vertex="1" parent="1">
          <mxGeometry x="245" y="-711.5" width="99" height="39" as="geometry" />
        </mxCell>
      </root>
    </mxGraphModel>
  </diagram>
</mxfile>
